<mxfile host="app.diagrams.net" agent="Mozilla/5.0 (X11; Linux x86_64) AppleWebKit/537.36 (KHTML, like Gecko) Chrome/135.0.0.0 Safari/537.36" version="26.2.9">
  <diagram name="Página-1" id="2-WZys72Kwr30GZNoUTS">
    <mxGraphModel dx="1044" dy="1689" grid="1" gridSize="10" guides="1" tooltips="1" connect="1" arrows="1" fold="1" page="1" pageScale="1" pageWidth="827" pageHeight="1169" math="0" shadow="0">
      <root>
        <mxCell id="0" />
        <mxCell id="1" parent="0" />
        <mxCell id="KrLmUu-Y9PHrJtyIz4xW-1" value="ADMINISTRADOR" style="shape=umlActor;verticalLabelPosition=bottom;verticalAlign=top;html=1;outlineConnect=0;fillColor=#f0a30a;fontColor=#000000;strokeColor=#BD7000;" vertex="1" parent="1">
          <mxGeometry x="30" y="360" width="160" height="240" as="geometry" />
        </mxCell>
        <mxCell id="KrLmUu-Y9PHrJtyIz4xW-4" value="GESTIONAR&lt;div&gt;RESEÑAS&lt;/div&gt;" style="ellipse;whiteSpace=wrap;html=1;" vertex="1" parent="1">
          <mxGeometry x="390" y="1320" width="180" height="60" as="geometry" />
        </mxCell>
        <mxCell id="KrLmUu-Y9PHrJtyIz4xW-5" value="GESTIONAR&lt;div&gt;PEDIDOS&lt;/div&gt;" style="ellipse;whiteSpace=wrap;html=1;" vertex="1" parent="1">
          <mxGeometry x="390" y="740" width="180" height="60" as="geometry" />
        </mxCell>
        <mxCell id="KrLmUu-Y9PHrJtyIz4xW-6" value="GESTIONAR&lt;div&gt;CLIENTES&lt;/div&gt;" style="ellipse;whiteSpace=wrap;html=1;" vertex="1" parent="1">
          <mxGeometry x="390" y="460" width="180" height="60" as="geometry" />
        </mxCell>
        <mxCell id="KrLmUu-Y9PHrJtyIz4xW-8" value="AÑADIR&lt;div&gt;PRODUCTOS&lt;/div&gt;" style="ellipse;whiteSpace=wrap;html=1;" vertex="1" parent="1">
          <mxGeometry x="640" y="40" width="180" height="60" as="geometry" />
        </mxCell>
        <mxCell id="KrLmUu-Y9PHrJtyIz4xW-9" value="LISTAR&lt;div&gt;PRODUCTOS&lt;/div&gt;" style="ellipse;whiteSpace=wrap;html=1;" vertex="1" parent="1">
          <mxGeometry x="640" y="130" width="180" height="60" as="geometry" />
        </mxCell>
        <mxCell id="KrLmUu-Y9PHrJtyIz4xW-10" value="ACTUALIZAR&lt;div&gt;STOCK&lt;/div&gt;" style="ellipse;whiteSpace=wrap;html=1;" vertex="1" parent="1">
          <mxGeometry x="640" y="210" width="180" height="60" as="geometry" />
        </mxCell>
        <mxCell id="KrLmUu-Y9PHrJtyIz4xW-11" value="LISTAR&lt;div&gt;CLIENTES&lt;/div&gt;" style="ellipse;whiteSpace=wrap;html=1;" vertex="1" parent="1">
          <mxGeometry x="640" y="500" width="180" height="60" as="geometry" />
        </mxCell>
        <mxCell id="KrLmUu-Y9PHrJtyIz4xW-12" value="AÑADIR&lt;div&gt;CLIENTES&lt;/div&gt;" style="ellipse;whiteSpace=wrap;html=1;" vertex="1" parent="1">
          <mxGeometry x="640" y="400" width="180" height="60" as="geometry" />
        </mxCell>
        <mxCell id="KrLmUu-Y9PHrJtyIz4xW-13" value="GESTIONAR&lt;div&gt;PRODUCTOS&lt;/div&gt;" style="ellipse;whiteSpace=wrap;html=1;" vertex="1" parent="1">
          <mxGeometry x="390" y="120" width="180" height="60" as="geometry" />
        </mxCell>
        <mxCell id="KrLmUu-Y9PHrJtyIz4xW-14" value="CREAR&lt;div&gt;PEDIDO&lt;/div&gt;" style="ellipse;whiteSpace=wrap;html=1;" vertex="1" parent="1">
          <mxGeometry x="630" y="680" width="180" height="60" as="geometry" />
        </mxCell>
        <mxCell id="KrLmUu-Y9PHrJtyIz4xW-16" value="CALCULAR TOTAL DEL&amp;nbsp;&lt;div&gt;PEDIDO&lt;/div&gt;" style="ellipse;whiteSpace=wrap;html=1;" vertex="1" parent="1">
          <mxGeometry x="630" y="1030" width="180" height="60" as="geometry" />
        </mxCell>
        <mxCell id="KrLmUu-Y9PHrJtyIz4xW-17" value="LISTAR PEDIDOS" style="ellipse;whiteSpace=wrap;html=1;" vertex="1" parent="1">
          <mxGeometry x="630" y="910" width="180" height="60" as="geometry" />
        </mxCell>
        <mxCell id="KrLmUu-Y9PHrJtyIz4xW-18" value="AÑADIR PRODUCTOS&lt;div&gt;A PEDIDO&lt;/div&gt;" style="ellipse;whiteSpace=wrap;html=1;" vertex="1" parent="1">
          <mxGeometry x="630" y="790" width="180" height="60" as="geometry" />
        </mxCell>
        <mxCell id="KrLmUu-Y9PHrJtyIz4xW-19" value="LISTAR&lt;div&gt;RESEÑA&lt;/div&gt;" style="ellipse;whiteSpace=wrap;html=1;" vertex="1" parent="1">
          <mxGeometry x="630" y="1390" width="180" height="60" as="geometry" />
        </mxCell>
        <mxCell id="KrLmUu-Y9PHrJtyIz4xW-20" value="AÑADIR&lt;div&gt;RESEÑA&lt;/div&gt;" style="ellipse;whiteSpace=wrap;html=1;" vertex="1" parent="1">
          <mxGeometry x="630" y="1220" width="180" height="60" as="geometry" />
        </mxCell>
        <mxCell id="KrLmUu-Y9PHrJtyIz4xW-21" value="" style="endArrow=none;html=1;rounded=0;exitX=0.5;exitY=0;exitDx=0;exitDy=0;exitPerimeter=0;fillColor=#60a917;strokeColor=#2D7600;strokeWidth=2;" edge="1" parent="1" source="KrLmUu-Y9PHrJtyIz4xW-1">
          <mxGeometry width="50" height="50" relative="1" as="geometry">
            <mxPoint x="390" y="190" as="sourcePoint" />
            <mxPoint x="400" y="170" as="targetPoint" />
          </mxGeometry>
        </mxCell>
        <mxCell id="KrLmUu-Y9PHrJtyIz4xW-22" value="" style="endArrow=none;html=1;rounded=0;entryX=0.073;entryY=0.827;entryDx=0;entryDy=0;entryPerimeter=0;exitX=1;exitY=0;exitDx=0;exitDy=0;fillColor=#60a917;strokeColor=#2D7600;strokeWidth=2;" edge="1" parent="1" source="KrLmUu-Y9PHrJtyIz4xW-13" target="KrLmUu-Y9PHrJtyIz4xW-8">
          <mxGeometry width="50" height="50" relative="1" as="geometry">
            <mxPoint x="390" y="190" as="sourcePoint" />
            <mxPoint x="440" y="140" as="targetPoint" />
          </mxGeometry>
        </mxCell>
        <mxCell id="KrLmUu-Y9PHrJtyIz4xW-23" value="" style="endArrow=none;html=1;rounded=0;entryX=0;entryY=0.5;entryDx=0;entryDy=0;exitX=0.964;exitY=0.64;exitDx=0;exitDy=0;exitPerimeter=0;fillColor=#60a917;strokeColor=#2D7600;strokeWidth=2;" edge="1" parent="1" source="KrLmUu-Y9PHrJtyIz4xW-13" target="KrLmUu-Y9PHrJtyIz4xW-9">
          <mxGeometry width="50" height="50" relative="1" as="geometry">
            <mxPoint x="570" y="162" as="sourcePoint" />
            <mxPoint x="440" y="140" as="targetPoint" />
          </mxGeometry>
        </mxCell>
        <mxCell id="KrLmUu-Y9PHrJtyIz4xW-24" value="" style="endArrow=none;html=1;rounded=0;entryX=0;entryY=0.5;entryDx=0;entryDy=0;exitX=0.778;exitY=1;exitDx=0;exitDy=0;exitPerimeter=0;fillColor=#60a917;strokeColor=#2D7600;strokeWidth=2;" edge="1" parent="1" source="KrLmUu-Y9PHrJtyIz4xW-13" target="KrLmUu-Y9PHrJtyIz4xW-10">
          <mxGeometry width="50" height="50" relative="1" as="geometry">
            <mxPoint x="390" y="190" as="sourcePoint" />
            <mxPoint x="440" y="140" as="targetPoint" />
          </mxGeometry>
        </mxCell>
        <mxCell id="KrLmUu-Y9PHrJtyIz4xW-25" value="" style="endArrow=none;html=1;rounded=0;entryX=0;entryY=0.5;entryDx=0;entryDy=0;fillColor=#d80073;strokeColor=#A50040;strokeWidth=2;" edge="1" parent="1" source="KrLmUu-Y9PHrJtyIz4xW-1" target="KrLmUu-Y9PHrJtyIz4xW-6">
          <mxGeometry width="50" height="50" relative="1" as="geometry">
            <mxPoint x="190" y="490" as="sourcePoint" />
            <mxPoint x="380" y="500" as="targetPoint" />
          </mxGeometry>
        </mxCell>
        <mxCell id="KrLmUu-Y9PHrJtyIz4xW-26" value="" style="endArrow=none;html=1;rounded=0;entryX=0.042;entryY=0.653;entryDx=0;entryDy=0;entryPerimeter=0;fillColor=#d80073;strokeColor=#A50040;strokeWidth=2;" edge="1" parent="1" source="KrLmUu-Y9PHrJtyIz4xW-6" target="KrLmUu-Y9PHrJtyIz4xW-12">
          <mxGeometry width="50" height="50" relative="1" as="geometry">
            <mxPoint x="390" y="550" as="sourcePoint" />
            <mxPoint x="440" y="500" as="targetPoint" />
          </mxGeometry>
        </mxCell>
        <mxCell id="KrLmUu-Y9PHrJtyIz4xW-27" value="" style="endArrow=none;html=1;rounded=0;entryX=0;entryY=0.5;entryDx=0;entryDy=0;exitX=1;exitY=1;exitDx=0;exitDy=0;fillColor=#d80073;strokeColor=#A50040;strokeWidth=2;" edge="1" parent="1" source="KrLmUu-Y9PHrJtyIz4xW-6" target="KrLmUu-Y9PHrJtyIz4xW-11">
          <mxGeometry width="50" height="50" relative="1" as="geometry">
            <mxPoint x="390" y="550" as="sourcePoint" />
            <mxPoint x="440" y="500" as="targetPoint" />
          </mxGeometry>
        </mxCell>
        <mxCell id="KrLmUu-Y9PHrJtyIz4xW-28" value="" style="endArrow=none;html=1;rounded=0;strokeWidth=2;fillColor=#0050ef;strokeColor=#001DBC;" edge="1" parent="1" source="KrLmUu-Y9PHrJtyIz4xW-5">
          <mxGeometry width="50" height="50" relative="1" as="geometry">
            <mxPoint x="390" y="790" as="sourcePoint" />
            <mxPoint x="180" y="610" as="targetPoint" />
          </mxGeometry>
        </mxCell>
        <mxCell id="KrLmUu-Y9PHrJtyIz4xW-29" value="" style="endArrow=none;html=1;rounded=0;entryX=0.036;entryY=0.653;entryDx=0;entryDy=0;entryPerimeter=0;exitX=1;exitY=0;exitDx=0;exitDy=0;strokeWidth=2;fillColor=#0050ef;strokeColor=#001DBC;" edge="1" parent="1" source="KrLmUu-Y9PHrJtyIz4xW-5" target="KrLmUu-Y9PHrJtyIz4xW-14">
          <mxGeometry width="50" height="50" relative="1" as="geometry">
            <mxPoint x="390" y="790" as="sourcePoint" />
            <mxPoint x="440" y="740" as="targetPoint" />
          </mxGeometry>
        </mxCell>
        <mxCell id="KrLmUu-Y9PHrJtyIz4xW-30" value="" style="endArrow=none;html=1;rounded=0;entryX=1;entryY=0.5;entryDx=0;entryDy=0;exitX=0;exitY=0.5;exitDx=0;exitDy=0;fillColor=#0050ef;strokeColor=#001DBC;strokeWidth=2;" edge="1" parent="1" source="KrLmUu-Y9PHrJtyIz4xW-18" target="KrLmUu-Y9PHrJtyIz4xW-5">
          <mxGeometry width="50" height="50" relative="1" as="geometry">
            <mxPoint x="390" y="790" as="sourcePoint" />
            <mxPoint x="440" y="740" as="targetPoint" />
          </mxGeometry>
        </mxCell>
        <mxCell id="KrLmUu-Y9PHrJtyIz4xW-31" value="" style="endArrow=none;html=1;rounded=0;exitX=0;exitY=0;exitDx=0;exitDy=0;entryX=1;entryY=1;entryDx=0;entryDy=0;fillColor=#0050ef;strokeColor=#001DBC;strokeWidth=2;" edge="1" parent="1" source="KrLmUu-Y9PHrJtyIz4xW-17" target="KrLmUu-Y9PHrJtyIz4xW-5">
          <mxGeometry width="50" height="50" relative="1" as="geometry">
            <mxPoint x="390" y="790" as="sourcePoint" />
            <mxPoint x="440" y="740" as="targetPoint" />
          </mxGeometry>
        </mxCell>
        <mxCell id="KrLmUu-Y9PHrJtyIz4xW-32" value="" style="endArrow=none;html=1;rounded=0;entryX=0.453;entryY=1.013;entryDx=0;entryDy=0;entryPerimeter=0;strokeWidth=2;fillColor=#0050ef;strokeColor=#001DBC;" edge="1" parent="1" source="KrLmUu-Y9PHrJtyIz4xW-16" target="KrLmUu-Y9PHrJtyIz4xW-5">
          <mxGeometry width="50" height="50" relative="1" as="geometry">
            <mxPoint x="390" y="790" as="sourcePoint" />
            <mxPoint x="440" y="740" as="targetPoint" />
          </mxGeometry>
        </mxCell>
        <mxCell id="KrLmUu-Y9PHrJtyIz4xW-34" value="" style="endArrow=none;html=1;rounded=0;fillColor=#e3c800;strokeColor=#B09500;strokeWidth=2;" edge="1" parent="1" source="KrLmUu-Y9PHrJtyIz4xW-4">
          <mxGeometry width="50" height="50" relative="1" as="geometry">
            <mxPoint x="390" y="790" as="sourcePoint" />
            <mxPoint x="40" y="610" as="targetPoint" />
          </mxGeometry>
        </mxCell>
        <mxCell id="KrLmUu-Y9PHrJtyIz4xW-35" value="" style="endArrow=none;html=1;rounded=0;entryX=0.071;entryY=0.747;entryDx=0;entryDy=0;entryPerimeter=0;fillColor=#e3c800;strokeColor=#B09500;strokeWidth=2;" edge="1" parent="1" source="KrLmUu-Y9PHrJtyIz4xW-4" target="KrLmUu-Y9PHrJtyIz4xW-20">
          <mxGeometry width="50" height="50" relative="1" as="geometry">
            <mxPoint x="390" y="1150" as="sourcePoint" />
            <mxPoint x="440" y="1100" as="targetPoint" />
            <Array as="points">
              <mxPoint x="590" y="1300" />
            </Array>
          </mxGeometry>
        </mxCell>
        <mxCell id="KrLmUu-Y9PHrJtyIz4xW-36" value="" style="endArrow=none;html=1;rounded=0;entryX=0;entryY=0.5;entryDx=0;entryDy=0;fillColor=#e3c800;strokeColor=#B09500;strokeWidth=2;" edge="1" parent="1" source="KrLmUu-Y9PHrJtyIz4xW-4" target="KrLmUu-Y9PHrJtyIz4xW-19">
          <mxGeometry width="50" height="50" relative="1" as="geometry">
            <mxPoint x="390" y="1390" as="sourcePoint" />
            <mxPoint x="440" y="1340" as="targetPoint" />
          </mxGeometry>
        </mxCell>
        <mxCell id="KrLmUu-Y9PHrJtyIz4xW-37" value="BUSCAR" style="ellipse;whiteSpace=wrap;html=1;" vertex="1" parent="1">
          <mxGeometry x="940" y="120" width="180" height="60" as="geometry" />
        </mxCell>
        <mxCell id="KrLmUu-Y9PHrJtyIz4xW-38" value="BUSCAR" style="ellipse;whiteSpace=wrap;html=1;" vertex="1" parent="1">
          <mxGeometry x="940" y="450" width="180" height="60" as="geometry" />
        </mxCell>
        <mxCell id="KrLmUu-Y9PHrJtyIz4xW-39" value="CARRITO" style="ellipse;whiteSpace=wrap;html=1;" vertex="1" parent="1">
          <mxGeometry x="960" y="730" width="180" height="60" as="geometry" />
        </mxCell>
        <mxCell id="KrLmUu-Y9PHrJtyIz4xW-40" value="BUSCAR" style="ellipse;whiteSpace=wrap;html=1;" vertex="1" parent="1">
          <mxGeometry x="960" y="950" width="180" height="60" as="geometry" />
        </mxCell>
        <mxCell id="KrLmUu-Y9PHrJtyIz4xW-41" value="BUSCAR" style="ellipse;whiteSpace=wrap;html=1;" vertex="1" parent="1">
          <mxGeometry x="960" y="1330" width="180" height="60" as="geometry" />
        </mxCell>
        <mxCell id="KrLmUu-Y9PHrJtyIz4xW-42" value="DIGITAL/FÍSICO" style="ellipse;whiteSpace=wrap;html=1;" vertex="1" parent="1">
          <mxGeometry x="860" y="20" width="180" height="60" as="geometry" />
        </mxCell>
        <mxCell id="KrLmUu-Y9PHrJtyIz4xW-43" value="LISTA PRODUCTOS" style="rounded=0;whiteSpace=wrap;html=1;" vertex="1" parent="1">
          <mxGeometry x="1260" y="-90" width="120" height="60" as="geometry" />
        </mxCell>
        <mxCell id="KrLmUu-Y9PHrJtyIz4xW-44" value="LISTA CLIENTES" style="rounded=0;whiteSpace=wrap;html=1;" vertex="1" parent="1">
          <mxGeometry x="1230" y="440" width="120" height="60" as="geometry" />
        </mxCell>
        <mxCell id="KrLmUu-Y9PHrJtyIz4xW-45" value="LISTA PEDIDOS" style="rounded=0;whiteSpace=wrap;html=1;" vertex="1" parent="1">
          <mxGeometry x="1290" y="840" width="120" height="60" as="geometry" />
        </mxCell>
        <mxCell id="KrLmUu-Y9PHrJtyIz4xW-46" value="LISTA RESEÑAS" style="rounded=0;whiteSpace=wrap;html=1;" vertex="1" parent="1">
          <mxGeometry x="1310" y="1330" width="120" height="60" as="geometry" />
        </mxCell>
        <mxCell id="KrLmUu-Y9PHrJtyIz4xW-47" value="" style="endArrow=classic;html=1;rounded=0;exitX=0.664;exitY=-0.03;exitDx=0;exitDy=0;exitPerimeter=0;" edge="1" parent="1" source="KrLmUu-Y9PHrJtyIz4xW-8">
          <mxGeometry width="50" height="50" relative="1" as="geometry">
            <mxPoint x="900" y="30" as="sourcePoint" />
            <mxPoint x="1250" y="-60" as="targetPoint" />
          </mxGeometry>
        </mxCell>
        <mxCell id="KrLmUu-Y9PHrJtyIz4xW-48" value="" style="endArrow=classic;html=1;rounded=0;" edge="1" parent="1" source="KrLmUu-Y9PHrJtyIz4xW-37">
          <mxGeometry width="50" height="50" relative="1" as="geometry">
            <mxPoint x="900" y="30" as="sourcePoint" />
            <mxPoint x="1270" y="-20" as="targetPoint" />
            <Array as="points">
              <mxPoint x="1260" y="160" />
            </Array>
          </mxGeometry>
        </mxCell>
        <mxCell id="KrLmUu-Y9PHrJtyIz4xW-49" value="" style="endArrow=classic;html=1;rounded=0;entryX=0;entryY=0.5;entryDx=0;entryDy=0;exitX=0.976;exitY=0.283;exitDx=0;exitDy=0;exitPerimeter=0;dashed=1;" edge="1" parent="1" source="KrLmUu-Y9PHrJtyIz4xW-10" target="KrLmUu-Y9PHrJtyIz4xW-37">
          <mxGeometry width="50" height="50" relative="1" as="geometry">
            <mxPoint x="900" y="30" as="sourcePoint" />
            <mxPoint x="950" y="-20" as="targetPoint" />
          </mxGeometry>
        </mxCell>
        <mxCell id="KrLmUu-Y9PHrJtyIz4xW-50" value="INCLUDE" style="edgeLabel;html=1;align=center;verticalAlign=middle;resizable=0;points=[];" vertex="1" connectable="0" parent="KrLmUu-Y9PHrJtyIz4xW-49">
          <mxGeometry x="0.0254" relative="1" as="geometry">
            <mxPoint as="offset" />
          </mxGeometry>
        </mxCell>
        <mxCell id="KrLmUu-Y9PHrJtyIz4xW-51" value="" style="endArrow=classic;html=1;rounded=0;exitX=0.953;exitY=0.203;exitDx=0;exitDy=0;exitPerimeter=0;dashed=1;" edge="1" parent="1" source="KrLmUu-Y9PHrJtyIz4xW-9" target="KrLmUu-Y9PHrJtyIz4xW-37">
          <mxGeometry width="50" height="50" relative="1" as="geometry">
            <mxPoint x="826" y="237" as="sourcePoint" />
            <mxPoint x="950" y="160" as="targetPoint" />
            <Array as="points">
              <mxPoint x="840" y="130" />
            </Array>
          </mxGeometry>
        </mxCell>
        <mxCell id="KrLmUu-Y9PHrJtyIz4xW-52" value="INCLUDE" style="edgeLabel;html=1;align=center;verticalAlign=middle;resizable=0;points=[];" vertex="1" connectable="0" parent="KrLmUu-Y9PHrJtyIz4xW-51">
          <mxGeometry x="0.0254" relative="1" as="geometry">
            <mxPoint as="offset" />
          </mxGeometry>
        </mxCell>
        <mxCell id="KrLmUu-Y9PHrJtyIz4xW-54" value="" style="endArrow=classic;html=1;rounded=0;entryX=0.984;entryY=0.677;entryDx=0;entryDy=0;exitX=0.313;exitY=0.97;exitDx=0;exitDy=0;exitPerimeter=0;dashed=1;entryPerimeter=0;" edge="1" parent="1" source="KrLmUu-Y9PHrJtyIz4xW-42" target="KrLmUu-Y9PHrJtyIz4xW-8">
          <mxGeometry width="50" height="50" relative="1" as="geometry">
            <mxPoint x="826" y="237" as="sourcePoint" />
            <mxPoint x="950" y="160" as="targetPoint" />
          </mxGeometry>
        </mxCell>
        <mxCell id="KrLmUu-Y9PHrJtyIz4xW-55" value="EXTENDS" style="edgeLabel;html=1;align=center;verticalAlign=middle;resizable=0;points=[];" vertex="1" connectable="0" parent="KrLmUu-Y9PHrJtyIz4xW-54">
          <mxGeometry x="0.0254" relative="1" as="geometry">
            <mxPoint as="offset" />
          </mxGeometry>
        </mxCell>
        <mxCell id="KrLmUu-Y9PHrJtyIz4xW-56" value="" style="endArrow=classic;html=1;rounded=0;exitX=0.958;exitY=0.37;exitDx=0;exitDy=0;exitPerimeter=0;entryX=0;entryY=0.25;entryDx=0;entryDy=0;" edge="1" parent="1" source="KrLmUu-Y9PHrJtyIz4xW-12" target="KrLmUu-Y9PHrJtyIz4xW-44">
          <mxGeometry width="50" height="50" relative="1" as="geometry">
            <mxPoint x="900" y="510" as="sourcePoint" />
            <mxPoint x="1340" y="390" as="targetPoint" />
            <Array as="points">
              <mxPoint x="1080" y="330" />
            </Array>
          </mxGeometry>
        </mxCell>
        <mxCell id="KrLmUu-Y9PHrJtyIz4xW-57" value="" style="endArrow=classic;html=1;rounded=0;entryX=0;entryY=0.75;entryDx=0;entryDy=0;exitX=1;exitY=0.5;exitDx=0;exitDy=0;" edge="1" parent="1" source="KrLmUu-Y9PHrJtyIz4xW-38" target="KrLmUu-Y9PHrJtyIz4xW-44">
          <mxGeometry width="50" height="50" relative="1" as="geometry">
            <mxPoint x="900" y="510" as="sourcePoint" />
            <mxPoint x="950" y="460" as="targetPoint" />
          </mxGeometry>
        </mxCell>
        <mxCell id="KrLmUu-Y9PHrJtyIz4xW-58" value="" style="endArrow=classic;html=1;rounded=0;exitX=1.007;exitY=0.357;exitDx=0;exitDy=0;exitPerimeter=0;entryX=0.011;entryY=0.697;entryDx=0;entryDy=0;entryPerimeter=0;dashed=1;" edge="1" parent="1" source="KrLmUu-Y9PHrJtyIz4xW-11" target="KrLmUu-Y9PHrJtyIz4xW-38">
          <mxGeometry width="50" height="50" relative="1" as="geometry">
            <mxPoint x="900" y="510" as="sourcePoint" />
            <mxPoint x="950" y="460" as="targetPoint" />
          </mxGeometry>
        </mxCell>
        <mxCell id="KrLmUu-Y9PHrJtyIz4xW-59" value="INCLUDE" style="edgeLabel;html=1;align=center;verticalAlign=middle;resizable=0;points=[];" vertex="1" connectable="0" parent="KrLmUu-Y9PHrJtyIz4xW-58">
          <mxGeometry x="0.1161" relative="1" as="geometry">
            <mxPoint as="offset" />
          </mxGeometry>
        </mxCell>
        <mxCell id="KrLmUu-Y9PHrJtyIz4xW-60" value="" style="endArrow=classic;html=1;rounded=0;entryX=0.402;entryY=0.977;entryDx=0;entryDy=0;entryPerimeter=0;exitX=1;exitY=0.333;exitDx=0;exitDy=0;exitPerimeter=0;dashed=1;" edge="1" parent="1" source="KrLmUu-Y9PHrJtyIz4xW-14" target="KrLmUu-Y9PHrJtyIz4xW-38">
          <mxGeometry width="50" height="50" relative="1" as="geometry">
            <mxPoint x="900" y="750" as="sourcePoint" />
            <mxPoint x="950" y="700" as="targetPoint" />
          </mxGeometry>
        </mxCell>
        <mxCell id="KrLmUu-Y9PHrJtyIz4xW-61" value="INCLUDE" style="edgeLabel;html=1;align=center;verticalAlign=middle;resizable=0;points=[];" vertex="1" connectable="0" parent="KrLmUu-Y9PHrJtyIz4xW-60">
          <mxGeometry x="-0.1676" y="-2" relative="1" as="geometry">
            <mxPoint as="offset" />
          </mxGeometry>
        </mxCell>
        <mxCell id="KrLmUu-Y9PHrJtyIz4xW-62" value="" style="endArrow=classic;html=1;rounded=0;exitX=0.976;exitY=0.283;exitDx=0;exitDy=0;exitPerimeter=0;dashed=1;" edge="1" parent="1">
          <mxGeometry width="50" height="50" relative="1" as="geometry">
            <mxPoint x="810" y="717" as="sourcePoint" />
            <mxPoint x="1120" y="160" as="targetPoint" />
            <Array as="points">
              <mxPoint x="1640" y="710" />
            </Array>
          </mxGeometry>
        </mxCell>
        <mxCell id="KrLmUu-Y9PHrJtyIz4xW-63" value="INCLUDE" style="edgeLabel;html=1;align=center;verticalAlign=middle;resizable=0;points=[];" vertex="1" connectable="0" parent="KrLmUu-Y9PHrJtyIz4xW-62">
          <mxGeometry x="0.0254" relative="1" as="geometry">
            <mxPoint x="-214" as="offset" />
          </mxGeometry>
        </mxCell>
        <mxCell id="KrLmUu-Y9PHrJtyIz4xW-64" value="" style="endArrow=classic;html=1;rounded=0;exitX=1;exitY=0.5;exitDx=0;exitDy=0;entryX=0;entryY=0;entryDx=0;entryDy=0;" edge="1" parent="1" source="KrLmUu-Y9PHrJtyIz4xW-14" target="KrLmUu-Y9PHrJtyIz4xW-45">
          <mxGeometry width="50" height="50" relative="1" as="geometry">
            <mxPoint x="730" y="770" as="sourcePoint" />
            <mxPoint x="1270" y="690" as="targetPoint" />
            <Array as="points">
              <mxPoint x="1050" y="630" />
            </Array>
          </mxGeometry>
        </mxCell>
        <mxCell id="KrLmUu-Y9PHrJtyIz4xW-65" value="" style="endArrow=classic;html=1;rounded=0;exitX=0.964;exitY=0.297;exitDx=0;exitDy=0;exitPerimeter=0;entryX=0;entryY=0.667;entryDx=0;entryDy=0;entryPerimeter=0;dashed=1;" edge="1" parent="1" source="KrLmUu-Y9PHrJtyIz4xW-18" target="KrLmUu-Y9PHrJtyIz4xW-39">
          <mxGeometry width="50" height="50" relative="1" as="geometry">
            <mxPoint x="810" y="770" as="sourcePoint" />
            <mxPoint x="860" y="720" as="targetPoint" />
          </mxGeometry>
        </mxCell>
        <mxCell id="KrLmUu-Y9PHrJtyIz4xW-66" value="INCLUDE" style="edgeLabel;html=1;align=center;verticalAlign=middle;resizable=0;points=[];" vertex="1" connectable="0" parent="KrLmUu-Y9PHrJtyIz4xW-65">
          <mxGeometry x="0.0907" y="-1" relative="1" as="geometry">
            <mxPoint as="offset" />
          </mxGeometry>
        </mxCell>
        <mxCell id="KrLmUu-Y9PHrJtyIz4xW-67" value="" style="endArrow=classic;html=1;rounded=0;entryX=0;entryY=0.333;entryDx=0;entryDy=0;entryPerimeter=0;dashed=1;" edge="1" parent="1" target="KrLmUu-Y9PHrJtyIz4xW-40">
          <mxGeometry width="50" height="50" relative="1" as="geometry">
            <mxPoint x="810" y="940" as="sourcePoint" />
            <mxPoint x="860" y="890" as="targetPoint" />
          </mxGeometry>
        </mxCell>
        <mxCell id="KrLmUu-Y9PHrJtyIz4xW-68" value="INCLUDE" style="edgeLabel;html=1;align=center;verticalAlign=middle;resizable=0;points=[];" vertex="1" connectable="0" parent="KrLmUu-Y9PHrJtyIz4xW-67">
          <mxGeometry x="0.1636" y="-1" relative="1" as="geometry">
            <mxPoint as="offset" />
          </mxGeometry>
        </mxCell>
        <mxCell id="KrLmUu-Y9PHrJtyIz4xW-69" value="" style="endArrow=classic;html=1;rounded=0;entryX=0;entryY=1;entryDx=0;entryDy=0;exitX=1;exitY=0.333;exitDx=0;exitDy=0;exitPerimeter=0;dashed=1;" edge="1" parent="1" source="KrLmUu-Y9PHrJtyIz4xW-16" target="KrLmUu-Y9PHrJtyIz4xW-40">
          <mxGeometry width="50" height="50" relative="1" as="geometry">
            <mxPoint x="810" y="1010" as="sourcePoint" />
            <mxPoint x="860" y="960" as="targetPoint" />
          </mxGeometry>
        </mxCell>
        <mxCell id="KrLmUu-Y9PHrJtyIz4xW-70" value="INCLUDE" style="edgeLabel;html=1;align=center;verticalAlign=middle;resizable=0;points=[];" vertex="1" connectable="0" parent="KrLmUu-Y9PHrJtyIz4xW-69">
          <mxGeometry x="0.2795" y="3" relative="1" as="geometry">
            <mxPoint as="offset" />
          </mxGeometry>
        </mxCell>
        <mxCell id="KrLmUu-Y9PHrJtyIz4xW-71" value="" style="endArrow=classic;html=1;rounded=0;entryX=0.5;entryY=0;entryDx=0;entryDy=0;dashed=1;" edge="1" parent="1" source="KrLmUu-Y9PHrJtyIz4xW-39" target="KrLmUu-Y9PHrJtyIz4xW-40">
          <mxGeometry width="50" height="50" relative="1" as="geometry">
            <mxPoint x="810" y="1010" as="sourcePoint" />
            <mxPoint x="860" y="960" as="targetPoint" />
          </mxGeometry>
        </mxCell>
        <mxCell id="KrLmUu-Y9PHrJtyIz4xW-72" value="INCLUDE" style="edgeLabel;html=1;align=center;verticalAlign=middle;resizable=0;points=[];" vertex="1" connectable="0" parent="KrLmUu-Y9PHrJtyIz4xW-71">
          <mxGeometry x="-0.165" y="-3" relative="1" as="geometry">
            <mxPoint as="offset" />
          </mxGeometry>
        </mxCell>
        <mxCell id="KrLmUu-Y9PHrJtyIz4xW-73" value="" style="endArrow=classic;html=1;rounded=0;entryX=0;entryY=0.5;entryDx=0;entryDy=0;exitX=0.94;exitY=0.83;exitDx=0;exitDy=0;exitPerimeter=0;" edge="1" parent="1" source="KrLmUu-Y9PHrJtyIz4xW-39" target="KrLmUu-Y9PHrJtyIz4xW-45">
          <mxGeometry width="50" height="50" relative="1" as="geometry">
            <mxPoint x="810" y="890" as="sourcePoint" />
            <mxPoint x="860" y="840" as="targetPoint" />
          </mxGeometry>
        </mxCell>
        <mxCell id="KrLmUu-Y9PHrJtyIz4xW-74" value="" style="endArrow=classic;html=1;rounded=0;entryX=0;entryY=1;entryDx=0;entryDy=0;" edge="1" parent="1" source="KrLmUu-Y9PHrJtyIz4xW-40" target="KrLmUu-Y9PHrJtyIz4xW-45">
          <mxGeometry width="50" height="50" relative="1" as="geometry">
            <mxPoint x="810" y="890" as="sourcePoint" />
            <mxPoint x="860" y="840" as="targetPoint" />
          </mxGeometry>
        </mxCell>
        <mxCell id="KrLmUu-Y9PHrJtyIz4xW-75" value="" style="endArrow=classic;html=1;rounded=0;exitX=0.929;exitY=0.183;exitDx=0;exitDy=0;exitPerimeter=0;entryX=0.5;entryY=1;entryDx=0;entryDy=0;dashed=1;" edge="1" parent="1" source="KrLmUu-Y9PHrJtyIz4xW-20" target="KrLmUu-Y9PHrJtyIz4xW-40">
          <mxGeometry width="50" height="50" relative="1" as="geometry">
            <mxPoint x="810" y="1130" as="sourcePoint" />
            <mxPoint x="860" y="1080" as="targetPoint" />
          </mxGeometry>
        </mxCell>
        <mxCell id="KrLmUu-Y9PHrJtyIz4xW-76" value="INCLUDE" style="edgeLabel;html=1;align=center;verticalAlign=middle;resizable=0;points=[];" vertex="1" connectable="0" parent="KrLmUu-Y9PHrJtyIz4xW-75">
          <mxGeometry x="0.1317" y="-1" relative="1" as="geometry">
            <mxPoint as="offset" />
          </mxGeometry>
        </mxCell>
        <mxCell id="KrLmUu-Y9PHrJtyIz4xW-77" value="" style="endArrow=classic;html=1;rounded=0;exitX=0.929;exitY=0.183;exitDx=0;exitDy=0;exitPerimeter=0;dashed=1;" edge="1" parent="1" target="KrLmUu-Y9PHrJtyIz4xW-37">
          <mxGeometry width="50" height="50" relative="1" as="geometry">
            <mxPoint x="807" y="1241" as="sourcePoint" />
            <mxPoint x="1880" y="580" as="targetPoint" />
            <Array as="points">
              <mxPoint x="1380" y="1230" />
              <mxPoint x="1870" y="970" />
              <mxPoint x="1910" y="770" />
            </Array>
          </mxGeometry>
        </mxCell>
        <mxCell id="KrLmUu-Y9PHrJtyIz4xW-78" value="INCLUDE" style="edgeLabel;html=1;align=center;verticalAlign=middle;resizable=0;points=[];" vertex="1" connectable="0" parent="KrLmUu-Y9PHrJtyIz4xW-77">
          <mxGeometry x="0.1317" y="-1" relative="1" as="geometry">
            <mxPoint as="offset" />
          </mxGeometry>
        </mxCell>
        <mxCell id="KrLmUu-Y9PHrJtyIz4xW-80" value="" style="endArrow=classic;html=1;rounded=0;dashed=1;" edge="1" parent="1" source="KrLmUu-Y9PHrJtyIz4xW-19" target="KrLmUu-Y9PHrJtyIz4xW-41">
          <mxGeometry width="50" height="50" relative="1" as="geometry">
            <mxPoint x="710" y="1490" as="sourcePoint" />
            <mxPoint x="760" y="1440" as="targetPoint" />
          </mxGeometry>
        </mxCell>
        <mxCell id="KrLmUu-Y9PHrJtyIz4xW-81" value="INCLUDE" style="edgeLabel;html=1;align=center;verticalAlign=middle;resizable=0;points=[];" vertex="1" connectable="0" parent="KrLmUu-Y9PHrJtyIz4xW-80">
          <mxGeometry x="0.2808" y="-2" relative="1" as="geometry">
            <mxPoint as="offset" />
          </mxGeometry>
        </mxCell>
        <mxCell id="KrLmUu-Y9PHrJtyIz4xW-82" value="" style="endArrow=classic;html=1;rounded=0;entryX=0;entryY=0.25;entryDx=0;entryDy=0;exitX=1;exitY=0.5;exitDx=0;exitDy=0;" edge="1" parent="1" source="KrLmUu-Y9PHrJtyIz4xW-20" target="KrLmUu-Y9PHrJtyIz4xW-46">
          <mxGeometry width="50" height="50" relative="1" as="geometry">
            <mxPoint x="1010" y="1490" as="sourcePoint" />
            <mxPoint x="1060" y="1440" as="targetPoint" />
          </mxGeometry>
        </mxCell>
        <mxCell id="KrLmUu-Y9PHrJtyIz4xW-83" value="" style="endArrow=classic;html=1;rounded=0;entryX=0;entryY=0.75;entryDx=0;entryDy=0;exitX=1;exitY=0.5;exitDx=0;exitDy=0;" edge="1" parent="1" source="KrLmUu-Y9PHrJtyIz4xW-41" target="KrLmUu-Y9PHrJtyIz4xW-46">
          <mxGeometry width="50" height="50" relative="1" as="geometry">
            <mxPoint x="1010" y="1490" as="sourcePoint" />
            <mxPoint x="1060" y="1440" as="targetPoint" />
          </mxGeometry>
        </mxCell>
        <mxCell id="KrLmUu-Y9PHrJtyIz4xW-84" value="María del Mar López Montoya | 1ºDAW" style="text;html=1;align=center;verticalAlign=middle;whiteSpace=wrap;rounded=0;" vertex="1" parent="1">
          <mxGeometry x="1150" y="1490" width="270" height="30" as="geometry" />
        </mxCell>
      </root>
    </mxGraphModel>
  </diagram>
</mxfile>
